<svg xmlns="http://www.w3.org/2000/svg" viewBox="445 365 330 215" role="img" aria-label="Teskeið">
  <rect x="445" y="365" width="330" height="215" fill="#245a31"/>
  
  <path d="M600 159L600 155L607 150L621 151L626 157L626 159ZM472 337C472.7 325.2 476.2 282.5 478 267C479.8 251.5 481.3 250 483 244C484.7 238 485.8 235.7 488 231C490.2 226.3 492.7 220.8 496 216C499.3 211.2 503.3 206.3 508 202C512.7 197.7 518.8 193.3 524 190C529.2 186.7 532.2 184.8 539 182C545.8 179.2 555 175.5 565 173C575 170.5 589 168 599 167C609 166 616.3 166.3 625 167C633.7 167.7 642 168.8 651 171C660 173.2 670.7 176.5 679 180C687.3 183.5 694.2 187 701 192C707.8 197 715 203.8 720 210C725 216.2 728.3 223.3 731 229C733.7 234.7 734.5 237.8 736 244C737.5 250.2 738.5 250.5 740 266C741.5 281.5 748 327.3 745 337C742 346.7 731 328.2 722 324C713 319.8 700.8 315.2 691 312C681.2 308.8 673.3 306.8 663 305C652.7 303.2 642.3 301.5 629 301C615.7 300.5 596 301 583 302C570 303 563.7 304 551 307C538.3 310 517.5 316.2 507 320C496.5 323.8 491.7 328.3 488 330C484.3 331.7 487.3 328.7 485 330C482.7 331.3 476.2 336.8 474 338C471.8 339.2 471.3 348.8 472 337ZM575 267L575 271L579 279L586 283L595 284L605 280L606 278L611 283L619 283L621 281L620 276L614 271L618 264L619 256L611 255L608 263L606 263L606 261L601 257L601 254L608 249L610 243L608 234L601 229L589 229L582 235L581 246L585 251L585 254L578 259ZM655 247L655 265L657 272L663 280L669 283L682 283L687 281L692 276L696 267L697 250L693 237L687 231L678 228L669 229L659 237ZM522 278L522 283L533 283L537 272L556 272L560 283L571 283L568 269L552 229L541 229L539 231ZM624 234L625 241L634 241L634 282L645 283L646 230L626 230ZM591 244L591 240L593 238L598 238L600 240L600 244L596 248L594 248ZM667 265L668 244L672 240L681 241L685 251L683 269L678 273L673 273L669 270ZM541 262L541 258L547 244L552 262ZM586 269L587 263L592 260L600 269L600 272L591 274ZM457 378C456.3 376.3 456.7 372.8 457 371C457.3 369.2 456 370.2 459 367C462 363.8 469 356.5 475 352C481 347.5 488.2 343.5 495 340C501.8 336.5 508.2 333.8 516 331C523.8 328.2 529.3 325.7 542 323C554.7 320.3 577.2 316.3 592 315C606.8 313.7 621.3 314.7 631 315C640.7 315.3 639.7 315 650 317C660.3 319 682 323.8 693 327C704 330.2 707.8 332 716 336C724.2 340 735.3 346.5 742 351C748.7 355.5 752.8 359.3 756 363C759.2 366.7 760.7 370.2 761 373C761.3 375.8 760.5 378.7 758 380C755.5 381.3 755.5 383.7 746 381C736.5 378.3 713.8 368.3 701 364C688.2 359.7 679.8 357.3 669 355C658.2 352.7 648 351 636 350C624 349 608.3 348.7 597 349C585.7 349.3 579 350.2 568 352C557 353.8 547 355.2 531 360C515 364.8 483.7 377.5 472 381C460.3 384.5 463.5 381.5 461 381C458.5 380.5 457.7 379.7 457 378ZM459 419C457.7 415.2 458.7 402.5 459 399C459.3 395.5 451 399.3 461 398C471 396.7 502.2 391.8 519 391C535.8 390.2 548.7 391 562 393C575.3 395 589.3 401.3 599 403C608.7 404.7 611.5 404.5 620 403C628.5 401.5 640.8 396 650 394C659.2 392 664.5 391.3 675 391C685.5 390.7 699 390.7 713 392C727 393.3 751.3 394.5 759 399C766.7 403.5 760.7 414.8 759 419C757.3 423.2 752.2 417.5 749 424C745.8 430.5 742.8 450 740 458C737.2 466 735 468.2 732 472C729 475.8 725 478.8 722 481C719 483.2 719.2 483.5 714 485C708.8 486.5 697.2 489.2 691 490C684.8 490.8 682.2 490.5 677 490C671.8 489.5 666 489.2 660 487C654 484.8 645.5 480.2 641 477C636.5 473.8 635.5 471.7 633 468C630.5 464.3 628.5 462 626 455C623.5 448 620.3 431.5 618 426C615.7 420.5 613.8 422.7 612 422C610.2 421.3 608.8 421.5 607 422C605.2 422.5 603 420.7 601 425C599 429.3 597 441.8 595 448C593 454.2 591.2 458 589 462C586.8 466 585.2 468.7 582 472C578.8 475.3 574 479.5 570 482C566 484.5 562.5 485.7 558 487C553.5 488.3 548.2 489.5 543 490C537.8 490.5 532.5 490.5 527 490C521.5 489.5 515.2 488.5 510 487C504.8 485.5 500.2 483.7 496 481C491.8 478.3 487.7 474 485 471C482.3 468 481.8 467 480 463C478.2 459 475.5 452.8 474 447C472.5 441.2 472.2 432.2 471 428C469.8 423.8 469 423.5 467 422C465 420.5 460.3 422.8 459 419ZM484 418C483 422.3 483 428.7 484 435C485 441.3 488.2 451.2 490 456C491.8 460.8 492.8 461.5 495 464C497.2 466.5 499 468.8 503 471C507 473.2 512.3 475.8 519 477C525.7 478.2 536.3 478.5 543 478C549.7 477.5 554.8 475.5 559 474C563.2 472.5 565 471.5 568 469C571 466.5 574.7 462.3 577 459C579.3 455.7 580.3 453.7 582 449C583.7 444.3 586.2 435.7 587 431C587.8 426.3 587.8 424.2 587 421C586.2 417.8 584 414.2 582 412C580 409.8 579.3 409.3 575 408C570.7 406.7 565.7 404.8 556 404C546.3 403.2 526.2 402.8 517 403C507.8 403.2 505.5 404 501 405C496.5 406 492.8 406.8 490 409C487.2 411.2 485 413.7 484 418ZM632 418C631 422.5 631.5 430.3 633 437C634.5 443.7 638.2 452.7 641 458C643.8 463.3 645.3 465.8 650 469C654.7 472.2 662 475.5 669 477C676 478.5 685.7 478.3 692 478C698.3 477.7 703.2 476.2 707 475C710.8 473.8 712 473.3 715 471C718 468.7 722.7 464 725 461C727.3 458 727.5 457.5 729 453C730.5 448.5 733.2 439.8 734 434C734.8 428.2 734.3 421.5 734 418C733.7 414.5 733.7 414.8 732 413C730.3 411.2 727.5 408.5 724 407C720.5 405.5 719.8 404.7 711 404C702.2 403.3 680.3 402.8 671 403C661.7 403.2 660.3 403.8 655 405C649.7 406.2 642.8 407.8 639 410C635.2 412.2 633 413.5 632 418ZM563 540L564 535L571 532L588 540L614 541L627 537L636 532L651 516L658 517L660 521L657 529L644 542L632 549L615 554L592 554L583 552L567 545Z" fill="#fbf8f1" fill-rule="evenodd"/>
</svg>
